<?xml version="1.0" encoding="utf-8"?>
<!-- Generator: Adobe Illustrator 16.0.0, SVG Export Plug-In . SVG Version: 6.00 Build 0)  -->
<!DOCTYPE svg PUBLIC "-//W3C//DTD SVG 1.1//EN" "http://www.w3.org/Graphics/SVG/1.1/DTD/svg11.dtd">
<svg version="1.1" id="Layer_1" xmlns="http://www.w3.org/2000/svg" xmlns:xlink="http://www.w3.org/1999/xlink" x="0px" y="0px"
	 width="612px" height="792px" viewBox="0 0 612 792" enable-background="new 0 0 612 792" xml:space="preserve">
<g>
	<g>
		<g>
			
				<path fill-rule="evenodd" clip-rule="evenodd" fill="none" stroke="#999999" stroke-width="2.5" stroke-linecap="round" stroke-linejoin="round" stroke-miterlimit="10" d="
				M342.17,374.09h-72.13l-13.95,18.86h100.02L342.17,374.09z M356.14,392.95c0-0.05-0.01,0.07-0.03,0H256.09
				c-0.01,0.07-0.02,0.12-0.02,0.16v24.99h100.07V392.95z"/>
		</g>
		
			<rect x="267.08" y="398.19" fill-rule="evenodd" clip-rule="evenodd" fill="none" stroke="#999999" stroke-width="2.5" stroke-linecap="round" stroke-linejoin="round" stroke-miterlimit="10" width="4" height="14.67"/>
		
			<rect x="277.08" y="398.19" fill-rule="evenodd" clip-rule="evenodd" fill="none" stroke="#999999" stroke-width="2.5" stroke-linecap="round" stroke-linejoin="round" stroke-miterlimit="10" width="4.01" height="14.67"/>
		
			<rect x="287.09" y="398.19" fill-rule="evenodd" clip-rule="evenodd" fill="none" stroke="#999999" stroke-width="2.5" stroke-linecap="round" stroke-linejoin="round" stroke-miterlimit="10" width="4" height="14.67"/>
		
			<rect x="297.1" y="398.19" fill-rule="evenodd" clip-rule="evenodd" fill="none" stroke="#999999" stroke-width="2.5" stroke-linecap="round" stroke-linejoin="round" stroke-miterlimit="10" width="4" height="14.67"/>
		<path fill-rule="evenodd" clip-rule="evenodd" fill="#999999" d="M337.12,405.48c0-2.32,1.8-4.19,4.01-4.19s4,1.87,4,4.19
			c0,2.31-1.79,4.19-4,4.19S337.12,407.79,337.12,405.48z"/>
	</g>
</g>
</svg>
