<?xml version="1.0" encoding="utf-8"?>
<!-- Generator: Adobe Illustrator 16.0.0, SVG Export Plug-In . SVG Version: 6.00 Build 0)  -->
<!DOCTYPE svg PUBLIC "-//W3C//DTD SVG 1.1//EN" "http://www.w3.org/Graphics/SVG/1.1/DTD/svg11.dtd">
<svg version="1.1" id="Layer_1" xmlns="http://www.w3.org/2000/svg" xmlns:xlink="http://www.w3.org/1999/xlink" x="0px" y="0px"
	 width="612px" height="792px" viewBox="0 0 612 792" enable-background="new 0 0 612 792" xml:space="preserve">
<g>
	
		<path fill-rule="evenodd" clip-rule="evenodd" fill="none" stroke="#999999" stroke-width="2.5" stroke-linecap="round" stroke-linejoin="round" stroke-miterlimit="10" d="
		M342.209,374.028h-72.025l-13.925,19.035h99.885L342.209,374.028z M356.166,393.063c0-0.043-0.011,0.064-0.021,0h-99.885
		c-0.021,0.064-0.031,0.106-0.031,0.149V418.1h99.938V393.063z"/>
	<path fill-rule="evenodd" clip-rule="evenodd" fill="#999999" d="M303.196,406.086c0-2.21,1.795-4.004,4.004-4.004
		c2.209,0,3.994,1.794,3.994,4.004c0,2.219-1.785,4.004-3.994,4.004C304.991,410.09,303.196,408.306,303.196,406.086z"/>
	<path fill-rule="evenodd" clip-rule="evenodd" fill="#999999" d="M321.189,406.086c0-2.21,1.785-4.004,3.994-4.004
		c2.209,0,4.004,1.794,4.004,4.004c0,2.219-1.795,4.004-4.004,4.004C322.974,410.09,321.189,408.306,321.189,406.086z"/>
	<path fill-rule="evenodd" clip-rule="evenodd" fill="#999999" d="M285.214,406.086c0-2.21,1.784-4.004,3.994-4.004
		s4.004,1.794,4.004,4.004c0,2.219-1.795,4.004-4.004,4.004S285.214,408.306,285.214,406.086z"/>
</g>
</svg>
