<?xml version="1.0" encoding="utf-8"?>
<!-- Generator: Adobe Illustrator 16.0.0, SVG Export Plug-In . SVG Version: 6.00 Build 0)  -->
<!DOCTYPE svg PUBLIC "-//W3C//DTD SVG 1.1//EN" "http://www.w3.org/Graphics/SVG/1.1/DTD/svg11.dtd">
<svg viewBox="0 0 100 100"  xmlns="http://www.w3.org/2000/svg">
 <g>
  <title>Compute</title>
  <g>
    <g>
     <path d="m86.100006,27l-72.130005,0l-13.949982,18.860016l100.019989,0l-13.940002,-18.860016zm13.970001,18.860016c0,-0.049988 -0.01001,0.070007 -0.029999,0l-100.02002,0c-0.01001,0.070007 -0.019989,0.119995 -0.019989,0.160004l0,24.98999l100.070007,0l0,-25.149994z" stroke-miterlimit="10" stroke-linecap="round" stroke-linejoin="round" stroke="white" fill="green" />
    </g>
    <rect height="14.5" width="4" stroke-miterlimit="10" stroke-linecap="round" stroke-linejoin="round" stroke="white" fill="none" y="51" x="11"/>
    <rect height="14.5" width="4" stroke-miterlimit="10" stroke-linecap="round" stroke-linejoin="round" stroke="white" fill="none" y="51" x="21"/>
    <rect height="14.5" width="4" stroke-miterlimit="10" stroke-linecap="round" stroke-linejoin="round" stroke="white" fill="none" y="51" x="31"/>
    <rect height="14.5" width="4" stroke-miterlimit="10" stroke-linecap="round" stroke-linejoin="round" stroke="white" fill="none" y="51" x="41"/>
    <path d="m81.049988,58.390015c0,-2.320007 1.800018,-4.190002 4.01001,-4.190002s4,1.869995 4,4.190002c0,2.309998 -1.790009,4.190002 -4,4.190002s-4.01001,-1.880005 -4.01001,-4.190002z" fill="white" />
   </g>
 </g>
</svg>