<?xml version="1.0" encoding="utf-8"?><!DOCTYPE svg PUBLIC "-//W3C//DTD SVG 1.1//EN" "http://www.w3.org/Graphics/SVG/1.1/DTD/svg11.dtd"><svg version="1.1" id="Layer_1" xmlns="http://www.w3.org/2000/svg" xmlns:xlink="http://www.w3.org/1999/xlink" x="0px" y="0px" width="40px" height="40px" viewBox="0 0 40 40" enable-background="new 0 0 40 40" xml:space="preserve"><path fill="#3480C2" d="M8.337,7.949v4.108c0,0.758,0.613,1.37,1.37,1.37h2.733v5.478H4.92c-0.365,0-0.685,0.322-0.685,0.685v6.163	H1.49c-0.757,0-1.37,0.613-1.37,1.37v4.108c0,0.757,0.613,1.368,1.37,1.368h6.847c0.758,0,1.37-0.611,1.37-1.368v-4.108	c0-0.757-0.612-1.37-1.37-1.37H5.605v-5.478H19.3v5.478h-2.746c-0.755,0-1.37,0.613-1.37,1.37v4.108c0,0.757,0.614,1.368,1.37,1.368	h6.847c0.758,0,1.37-0.611,1.37-1.368v-4.108c0-0.757-0.612-1.37-1.37-1.37h-2.733v-5.478h13.695v5.478h-2.744 c-0.756,0-1.369,0.613-1.369,1.37v4.108c0,0.757,0.613,1.368,1.369,1.368h6.848c0.756,0,1.369-0.611,1.369-1.368v-4.108	c0-0.757-0.613-1.37-1.369-1.37h-2.733v-6.163c0-0.363-0.32-0.685-0.685-0.685H13.81v-5.478h2.744c0.758,0,1.37-0.612,1.37-1.37	V7.949c0-0.758-0.612-1.37-1.37-1.37H9.707C8.95,6.579,8.337,7.191,8.337,7.949"/></svg>