<?xml version="1.0" encoding="utf-8"?><!DOCTYPE svg PUBLIC "-//W3C//DTD SVG 1.1//EN" "http://www.w3.org/Graphics/SVG/1.1/DTD/svg11.dtd"><svg version="1.1" id="Layer_1" xmlns="http://www.w3.org/2000/svg" xmlns:xlink="http://www.w3.org/1999/xlink" x="0px" y="0px" width="40px" height="40px" viewBox="0 0 40 40" enable-background="new 0 0 40 40" xml:space="preserve"><path fill="#3480C2" d="M7.701,23.518l6.077-3.507l-3.126-1.804c-4.307-2.488-6.148-7.979-3.789-12.359 c2.439-4.532,8.12-6.124,12.547-3.568L18.652,3.59C14.817,1.376,9.853,2.896,7.968,7.023c-1.644,3.597-0.032,7.866,3.394,9.843 l3.172,1.833v-7.018h1.515v8.417c0,0.217-0.115,0.416-0.302,0.524l-7.289,4.209L7.701,23.518z M22.107,18.699l3.124-1.804 c4.31-2.488,9.982-1.337,12.598,2.896c2.707,4.379,1.244,10.095-3.182,12.651l-0.758-1.312c3.834-2.214,5.001-7.273,2.371-10.97	c-2.294-3.222-6.796-3.961-10.222-1.984l-3.174,1.833l6.076,3.507l-0.757,1.313l-7.289-4.209c-0.188-0.108-0.302-0.307-0.302-0.524 v-8.417h1.514V18.699z M19.079,25.865v3.606c0,4.975-3.834,9.313-8.805,9.465c-5.147,0.153-9.368-3.973-9.368-9.082h1.516 c0,4.426,3.8,7.965,8.315,7.533c3.937-0.376,6.827-3.905,6.827-7.861v-3.661l-6.077,3.508l-0.757-1.312l7.289-4.208	c0.188-0.109,0.418-0.109,0.604,0l7.291,4.208l-0.758,1.312L19.079,25.865z"/><path fill="none" stroke="#3480C2" stroke-miterlimit="10" d="M7.701,23.518l6.077-3.507l-3.126-1.804	c-4.307-2.488-6.148-7.979-3.789-12.359c2.439-4.532,8.12-6.124,12.547-3.568L18.652,3.59C14.817,1.376,9.853,2.896,7.968,7.023	c-1.644,3.597-0.032,7.866,3.394,9.843l3.172,1.833v-7.018h1.515v8.417c0,0.217-0.115,0.416-0.302,0.524l-7.289,4.209L7.701,23.518z M22.107,18.699l3.124-1.804c4.31-2.488,9.982-1.337,12.598,2.896c2.707,4.379,1.244,10.095-3.182,12.651l-0.758-1.312 c3.834-2.214,5.001-7.273,2.371-10.97c-2.294-3.222-6.796-3.961-10.222-1.984l-3.174,1.833l6.076,3.507l-0.757,1.313l-7.289-4.209 c-0.188-0.108-0.302-0.307-0.302-0.524v-8.417h1.514V18.699z M19.079,25.865v3.606c0,4.975-3.834,9.313-8.805,9.465	c-5.147,0.153-9.368-3.973-9.368-9.082h1.516c0,4.426,3.8,7.965,8.315,7.533c3.937-0.376,6.827-3.905,6.827-7.861v-3.661 l-6.077,3.508l-0.757-1.312l7.289-4.208c0.188-0.109,0.418-0.109,0.604,0l7.291,4.208l-0.758,1.312L19.079,25.865z"/></svg>