<?xml version="1.0" encoding="utf-8"?><!DOCTYPE svg PUBLIC "-//W3C//DTD SVG 1.1//EN" "http://www.w3.org/Graphics/SVG/1.1/DTD/svg11.dtd"><svg version="1.1" id="Layer_1" xmlns="http://www.w3.org/2000/svg" xmlns:xlink="http://www.w3.org/1999/xlink" x="0px" y="0px" width="40px" height="40px" viewBox="0 0 40 40" enable-background="new 0 0 40 40" xml:space="preserve"><path fill-rule="evenodd" clip-rule="evenodd" fill="#3480C2" d="M11.087,17.222v10.8c0,0.496,0.403,0.899,0.899,0.899h16.202 c0.494,0,0.899-0.403,0.899-0.899v-10.8c0-0.498-0.405-0.9-0.899-0.9h-2.702v-5.401c0-2.982-2.416-5.398-5.399-5.398 s-5.399,2.416-5.399,5.398v5.401h-2.701C11.491,16.322,11.087,16.724,11.087,17.222 M20.087,0.122c7.583,0,16.2,1.799,16.2,1.799 l0.099,18.388c0,10.683-8.215,17.373-16.298,19.413c-8.086-2.04-16.302-8.73-16.302-19.413L3.888,1.921	C3.888,1.921,12.504,0.122,20.087,0.122 M17.388,16.322v-5.401c0-1.49,1.208-2.699,2.7-2.699c1.491,0,2.702,1.209,2.702,2.699v5.401	H17.388z"/></svg>