<?xml version="1.0" encoding="utf-8"?><!DOCTYPE svg PUBLIC "-//W3C//DTD SVG 1.1//EN" "http://www.w3.org/Graphics/SVG/1.1/DTD/svg11.dtd"><svg version="1.1" id="Layer_1" xmlns="http://www.w3.org/2000/svg" xmlns:xlink="http://www.w3.org/1999/xlink" x="0px" y="0px" width="40px" height="40px" viewBox="0 0 40 40" enable-background="new 0 0 40 40" xml:space="preserve"><path fill="#3480C2" d="M0,12.929c0,1.005,0.816,1.821,1.822,1.821h36.429c1.008,0,1.821-0.815,1.821-1.821V3.822 C40.072,2.815,39.259,2,38.251,2H1.822C0.816,2,0,2.815,0,3.822V12.929z M0,29.322c0,1.004,0.816,1.818,1.822,1.818h36.429 c1.008,0,1.821-0.814,1.821-1.818v-9.106c0-1.008-0.813-1.822-1.821-1.822H1.822C0.816,18.393,0,19.208,0,20.216V29.322z M30.966,8.375c0-1.508,1.226-2.732,2.731-2.732c1.508,0,2.732,1.224,2.732,2.732c0,1.509-1.227,2.732-2.732,2.732 C32.189,11.108,30.966,9.884,30.966,8.375 M30.966,24.768c0-1.508,1.226-2.73,2.731-2.73c1.508,0,2.732,1.225,2.732,2.73 c0,1.51-1.227,2.732-2.732,2.732C32.189,27.502,30.966,26.277,30.966,24.768"/></svg>