<?xml version="1.0" encoding="utf-8"?><!DOCTYPE svg PUBLIC "-//W3C//DTD SVG 1.1//EN" "http://www.w3.org/Graphics/SVG/1.1/DTD/svg11.dtd"><svg version="1.1" id="Layer_1" xmlns="http://www.w3.org/2000/svg" xmlns:xlink="http://www.w3.org/1999/xlink" x="0px" y="0px" width="40px" height="40px" viewBox="0 0 40 40" enable-background="new 0 0 40 40" xml:space="preserve"><path fill="#3480C2" d="M22.982,19.454h4.838c0.651,0,1.182,0.529,1.182,1.181v15.636c0,0.652-0.53,1.179-1.182,1.179h-4.838 c-0.652,0-1.181-0.526-1.181-1.179V20.635C21.802,19.983,22.33,19.454,22.982,19.454 M12.185,1.459h4.838 c0.651,0,1.181,0.528,1.181,1.18v33.631c0,0.652-0.53,1.179-1.181,1.179h-4.838c-0.653,0-1.181-0.526-1.181-1.179V2.639	C11.004,1.987,11.532,1.459,12.185,1.459 M1.387,14.056h4.838c0.652,0,1.181,0.528,1.181,1.18v21.034 c0,0.652-0.528,1.179-1.181,1.179H1.387c-0.652,0-1.181-0.526-1.181-1.179V15.236C0.206,14.584,0.735,14.056,1.387,14.056 M33.781,12.256h4.837c0.65,0,1.179,0.529,1.179,1.181v22.833c0,0.652-0.528,1.179-1.179,1.179h-4.837 c-0.653,0-1.182-0.526-1.182-1.179V13.437C32.6,12.785,33.128,12.256,33.781,12.256"/></svg>