<?xml version="1.0" encoding="utf-8"?><!DOCTYPE svg PUBLIC "-//W3C//DTD SVG 1.1//EN" "http://www.w3.org/Graphics/SVG/1.1/DTD/svg11.dtd"><svg version="1.1" id="Layer_1" xmlns="http://www.w3.org/2000/svg" xmlns:xlink="http://www.w3.org/1999/xlink" x="0px" y="0px" width="40px" height="40px" viewBox="0 0 40 40" enable-background="new 0 0 40 40" xml:space="preserve"><path fill="#3480C2" d="M1.399,25.75c-1.658,0-1.658,2.488,0,2.488h4.148c1.688,0,3.788-1.009,4.842-2.327l3.427-4.282l4.571,5.714 l-3.975,4.967c-0.583,0.73-1.968,1.396-2.899,1.396h-4.15c-1.659,0-1.659,2.488,0,2.488h4.15c1.688,0,3.788-1.009,4.845-2.328 l3.623-4.531l3.624,4.531c1.054,1.319,3.156,2.328,4.843,2.328h4.15c1.658,0,1.658-2.488,0-2.488h-4.15	c-0.932,0-2.316-0.665-2.898-1.396l-3.975-4.967l4.57-5.714l3.426,4.282c1.057,1.318,3.156,2.327,4.845,2.327h4.149	c1.658,0,1.658-2.488,0-2.488h-4.149c-0.934,0-2.318-0.665-2.9-1.395l-3.774-4.719l3.786-4.733c0.583-0.728,1.967-1.394,2.898-1.394	h4.15c1.659,0,1.659-2.488,0-2.488h-4.15c-1.688,0-3.787,1.009-4.844,2.327l-3.437,4.295l-4.57-5.714l3.986-4.981 c0.581-0.728,1.967-1.393,2.9-1.393h4.146c1.66,0,1.66-2.49,0-2.49h-4.146c-1.689,0-3.79,1.009-4.845,2.329l-3.636,4.543 l-3.635-4.543c-1.055-1.32-3.155-2.329-4.844-2.329H7.353c-1.658,0-1.658,2.49,0,2.49h4.149c0.933,0,2.318,0.665,2.901,1.393 l3.985,4.981l-4.571,5.714l-3.437-4.295c-1.055-1.318-3.156-2.327-4.845-2.327H1.386c-1.659,0-1.659,2.488,0,2.488h4.149 c0.934,0,2.319,0.666,2.9,1.394l3.787,4.733l-3.775,4.719c-0.582,0.729-1.968,1.395-2.9,1.395H1.399z M19.981,13.923l4.571,5.714 l-4.571,5.714l-4.571-5.714L19.981,13.923z"/></svg>