<?xml version="1.0" encoding="utf-8"?>
<!-- Generator: Adobe Illustrator 16.0.0, SVG Export Plug-In . SVG Version: 6.00 Build 0)  -->
<!DOCTYPE svg PUBLIC "-//W3C//DTD SVG 1.1//EN" "http://www.w3.org/Graphics/SVG/1.1/DTD/svg11.dtd">
<svg viewBox="0 0 100 100" xmlns="http://www.w3.org/2000/svg">
 <g>
  <title>Database</title>
  <g>
   <path stroke="white" fill="white" stroke-miterlimit="10" stroke-linejoin="round" stroke-linecap="square" clip-rule="evenodd" fill-rule="evenodd" d="M 0,27.603718 0,16.158957 c 6.722464,7.539423 27.750597,11.716223 49.10001,11.716223 21.349413,0 42.392696,-4.1768 49.10001,-11.716223 L 98.11211,27.498219 C 96.504746,35.595471 75.184639,42.019024 49.10001,42.019024 23.015381,42.019024 1.695257,35.595471 0,27.603718 z m 0,33.248638 c 6.693159,8.112373 27.633406,12.756615 49.10001,12.756615 21.466604,0 42.406849,-4.644241 49.10001,-12.756615 l 0,9.952034 c 0,9.348755 -21.977821,16.933311 -49.10001,16.933311 C 21.977821,87.737701 0,80.153144 0,70.80439 L 0,60.852356 z M 98.20002,38.505657 98.1414,49.482967 C 96.855301,58.047672 75.38871,64.878303 49.10001,64.878303 22.811291,64.878303 1.344687,58.047672 0,49.558444 L 0,38.505656 c 6.707311,7.825897 27.692001,12.228912 49.10001,12.228912 21.408009,0 42.392696,-4.403015 49.10001,-12.228912 z" />
   <g>
    <path stroke="white" fill="gray" stroke-miterlimit="10" stroke-linejoin="round" stroke-linecap="square" clip-rule="evenodd" fill-rule="evenodd" d="M 0,38.028549 0,26.583801 c 6.722034,7.539364 27.750257,11.716156 49.100014,11.716156 21.349757,0 42.392563,-4.176792 49.099976,-11.716156 L 98.11231,37.922985 C 96.504906,46.020252 75.184357,52.443806 49.100014,52.443806 23.015671,52.443806 1.695081,46.020302 0,38.028549 z m 0,33.248619 c 6.692779,8.112358 27.633371,12.756584 49.100014,12.756584 21.466643,0 42.407188,-4.644226 49.099976,-12.756584 l 0,9.951973 c 0,9.348778 -21.978073,16.933372 -49.099976,16.933372 C 21.978111,98.162513 0,90.577918 0,81.229141 L 0,71.277168 z M 98.199989,48.930481 98.141525,59.907795 C 96.855606,68.472496 75.388962,75.303162 49.099972,75.303162 22.811022,75.303162 1.34438,68.472496 0,59.983216 L 0,48.930482 c 6.707407,7.825867 27.691792,12.228874 49.099972,12.228874 21.40818,0 42.392605,-4.403008 49.100018,-12.228874 z M 0,14.792228 C 0,6.619536 21.978109,0 49.100014,0 76.221919,0 98.19999,6.619536 98.19999,14.792228 c 0,8.157596 -21.978073,14.777131 -49.099976,14.777131 C 21.978111,29.569359 0,22.949824 0,14.792228 z" />
   </g>
  </g>
 </g>
</svg>