<?xml version="1.0" encoding="utf-8"?>
<!DOCTYPE svg PUBLIC "-//W3C//DTD SVG 1.1//EN" "http://www.w3.org/Graphics/SVG/1.1/DTD/svg11.dtd">
<svg width="70" height="70" xmlns="http://www.w3.org/2000/svg">
 <g>
  <title>Database Icon</title>
  <g id="database">
   <path id="svg_2" d="m1,27.220001l0,-7.589996c4.600006,5 18.98999,7.769989 33.600006,7.769989s29.009979,-2.769989 33.599976,-7.769989l-0.059998,7.519989c-1.099976,5.369995 -15.690002,9.630005 -33.539978,9.630005s-32.440033,-4.259979 -33.600006,-9.559998zm0,22.050018c4.579987,5.380005 18.910004,8.459991 33.600006,8.459991s29.019989,-3.079987 33.599976,-8.459991l0,6.600006c0,6.199982 -15.039978,11.22998 -33.599976,11.22998s-33.600006,-5.029999 -33.600006,-11.22998l0,-6.600006zm67.199982,-14.820007l-0.040009,7.279999c-0.879974,5.679993 -15.569977,10.209991 -33.559998,10.209991c-17.98999,0 -32.679993,-4.529999 -33.599976,-10.159973l0,-7.330017c4.589996,5.190002 18.949982,8.110016 33.599976,8.110016s29.01001,-2.920013 33.600006,-8.110016zm-67.199982,-22.640015c0,-5.420013 15.040009,-9.809998 33.600006,-9.809998s33.599976,4.389984 33.599976,9.809998c0,5.410004 -15.039978,9.799988 -33.599976,9.799988s-33.600006,-4.389984 -33.600006,-9.799988z" stroke-miterlimit="10" stroke-linejoin="round" stroke-linecap="square" stroke-width="2.5" stroke="#999999" fill="#FFFFFF" clip-rule="evenodd" fill-rule="evenodd"/>
  </g>
 </g>
</svg>