<?xml version="1.0" encoding="utf-8"?>
<!-- Generator: Adobe Illustrator 16.0.0, SVG Export Plug-In . SVG Version: 6.00 Build 0)  -->
<!DOCTYPE svg PUBLIC "-//W3C//DTD SVG 1.1//EN" "http://www.w3.org/Graphics/SVG/1.1/DTD/svg11.dtd">
<svg version="1.1" id="Layer_1" xmlns="http://www.w3.org/2000/svg" xmlns:xlink="http://www.w3.org/1999/xlink" x="0px" y="0px"
	 width="612px" height="792px" viewBox="0 0 612 792" enable-background="new 0 0 612 792" xml:space="preserve">
<g>
	
		<path fill-rule="evenodd" clip-rule="evenodd" fill="#FFFFFF" stroke="#999999" stroke-width="2.5" stroke-linecap="square" stroke-linejoin="round" stroke-miterlimit="10" d="
		M273.42,389.62v-7.59c4.6,5,18.99,7.77,33.6,7.77s29.01-2.77,33.6-7.77l-0.06,7.52c-1.1,5.37-15.69,9.63-33.54,9.63
		S274.58,394.92,273.42,389.62z M273.42,411.67c4.58,5.38,18.91,8.46,33.6,8.46s29.02-3.08,33.6-8.46v6.6
		c0,6.2-15.04,11.23-33.6,11.23s-33.6-5.03-33.6-11.23V411.67z M340.62,396.85l-0.04,7.28c-0.88,5.68-15.57,10.21-33.56,10.21
		c-17.99,0-32.68-4.53-33.6-10.16v-7.33c4.59,5.19,18.95,8.11,33.6,8.11S336.03,402.04,340.62,396.85z M273.42,374.21
		c0-5.42,15.04-9.81,33.6-9.81s33.6,4.39,33.6,9.81c0,5.41-15.04,9.8-33.6,9.8S273.42,379.62,273.42,374.21z"/>
</g>
</svg>
