<?xml version="1.0" encoding="utf-8"?>
<!DOCTYPE svg PUBLIC "-//W3C//DTD SVG 1.1//EN" "http://www.w3.org/Graphics/SVG/1.1/DTD/svg11.dtd">
<svg width="105" height="105" xmlns="http://www.w3.org/2000/svg">
 <g>
  <title>Load Balancer</title>
  <g id="load_balancer">
   <path stroke="#999999" id="svg_2" d="m87.980003,25l-72.025003,0l-13.92497,19.035l99.884971,0l-13.934998,-19.035zm13.956993,19.035c0,-0.042999 -0.010994,0.064003 -0.020996,0l-99.884991,0c-0.021,0.064003 -0.03101,0.105999 -0.03101,0.148998l0,24.888l99.938004,0l0,-25.036999l-0.001007,0z" stroke-miterlimit="10" stroke-linejoin="round" stroke-linecap="round" stroke-width="2.5" fill="none" clip-rule="evenodd" fill-rule="evenodd"/>
   <path id="svg_3" d="m48.966999,57.057999c0,-2.209999 1.795101,-4.003998 4.004002,-4.003998c2.209099,0 3.993999,1.793999 3.993999,4.003998c0,2.219002 -1.784901,4.004005 -3.993999,4.004005c-2.209,0 -4.004002,-1.784004 -4.004002,-4.004005z" fill="#999999" clip-rule="evenodd" fill-rule="evenodd"/>
   <path id="svg_4" d="m66.959999,57.057999c0,-2.209999 1.785004,-4.003998 3.994003,-4.003998c2.209,0 4.003998,1.793999 4.003998,4.003998c0,2.219002 -1.794998,4.004005 -4.003998,4.004005c-2.209,0 -3.994003,-1.784004 -3.994003,-4.004005z" fill="#999999" clip-rule="evenodd" fill-rule="evenodd"/>
   <path id="svg_5" d="m30.985001,57.057999c0,-2.209999 1.784,-4.003998 3.993999,-4.003998s4.004002,1.793999 4.004002,4.003998c0,2.219002 -1.795002,4.004005 -4.004002,4.004005s-3.993999,-1.784004 -3.993999,-4.004005z" fill="#999999" clip-rule="evenodd" fill-rule="evenodd"/>
  </g>
 </g>
</svg>