<?xml version="1.0" encoding="utf-8"?>
<!DOCTYPE svg PUBLIC "-//W3C//DTD SVG 1.1//EN" "http://www.w3.org/Graphics/SVG/1.1/DTD/svg11.dtd">
<svg width="100" height="100" xmlns="http://www.w3.org/2000/svg">
 <g>
  <title>Server</title>
  <g id="svg_1">
   <g id="svg_2">
    <g id="svg_3">
     <path id="svg_4" d="m86.100006,25l-72.130005,0l-13.949982,18.860016l100.019989,0l-13.940002,-18.860016zm13.970001,18.860016c0,-0.049988 -0.01001,0.070007 -0.029999,0l-100.02002,0c-0.01001,0.070007 -0.019989,0.119995 -0.019989,0.160004l0,24.98999l100.069977,0l0,-25.149994l0.000031,0z" stroke-miterlimit="10" stroke-linejoin="round" stroke-linecap="round" stroke-width="2.5" stroke="#999999" fill="none" clip-rule="evenodd" fill-rule="evenodd"/>
    </g>
    <rect id="svg_5" height="14.67" width="4" stroke-miterlimit="10" stroke-linejoin="round" stroke-linecap="round" stroke-width="2.5" stroke="#999999" fill="none" clip-rule="evenodd" fill-rule="evenodd" y="49.100004" x="11.009993"/>
    <rect id="svg_6" height="14.67" width="4.01" stroke-miterlimit="10" stroke-linejoin="round" stroke-linecap="round" stroke-width="2.5" stroke="#999999" fill="none" clip-rule="evenodd" fill-rule="evenodd" y="49.100004" x="21.009993"/>
    <rect id="svg_7" height="14.67" width="4" stroke-miterlimit="10" stroke-linejoin="round" stroke-linecap="round" stroke-width="2.5" stroke="#999999" fill="none" clip-rule="evenodd" fill-rule="evenodd" y="49.100004" x="31.019993"/>
    <rect id="svg_8" height="14.67" width="4" stroke-miterlimit="10" stroke-linejoin="round" stroke-linecap="round" stroke-width="2.5" stroke="#999999" fill="none" clip-rule="evenodd" fill-rule="evenodd" y="49.100004" x="41.029993"/>
    <path id="svg_9" d="m81.049988,56.390015c0,-2.320007 1.799988,-4.190002 4.01001,-4.190002s4,1.869995 4,4.190002c0,2.309998 -1.790009,4.190002 -4,4.190002s-4.01001,-1.880005 -4.01001,-4.190002z" fill="#999999" clip-rule="evenodd" fill-rule="evenodd"/>
   </g>
  </g>
 </g>
</svg>