<?xml version="1.0" encoding="utf-8"?>
<!DOCTYPE svg PUBLIC "-//W3C//DTD SVG 1.1//EN" "http://www.w3.org/Graphics/SVG/1.1/DTD/svg11.dtd">
<svg version="1.1" id="Layer_1" xmlns="http://www.w3.org/2000/svg" xmlns:xlink="http://www.w3.org/1999/xlink" x="0px" y="0px"
	 width="150px" height="150px" viewBox="0 0 150 150" enable-background="new 0 0 150 150" xml:space="preserve">
<g>
	<path fill="#FFFFFF" stroke="#B1B1B1" stroke-width="1.7" stroke-miterlimit="10" d="M75.986,33.718H47.461
		c-2.565,0-4.653,2.085-4.653,4.655v75.014c0,2.571,2.089,4.653,4.653,4.653h54.693c2.571,0,4.653-2.083,4.653-4.653V64.721"/>
	<path fill="#FFFFFF" stroke="#B1B1B1" stroke-width="1.7" stroke-miterlimit="10" d="M79.072,65.741c8.146,0,26.609,0,26.609,0
		c0.776,0,1.791-0.963,0.532-2.125c0.515,0.554-28.517-29.652-28.517-29.652s-2.888-1.699-2.888,3.053c0,6.121,0,19.094,0,24.343
		C74.809,64.755,76.457,65.741,79.072,65.741z"/>
</g>
</svg>
