<?xml version="1.0" encoding="utf-8"?>
<!-- Generator: Adobe Illustrator 15.0.2, SVG Export Plug-In . SVG Version: 6.00 Build 0)  -->
<!DOCTYPE svg PUBLIC "-//W3C//DTD SVG 1.1//EN" "http://www.w3.org/Graphics/SVG/1.1/DTD/svg11.dtd">
<svg version="1.1" id="Layer_1" xmlns="http://www.w3.org/2000/svg" xmlns:xlink="http://www.w3.org/1999/xlink" x="0px" y="0px"
	 width="150px" height="150px" viewBox="0 0 150 150" enable-background="new 0 0 150 150" xml:space="preserve">
<path opacity="0.5" fill="#57C2F6" enable-background="new    " d="M75,116.75c-20.907,0-37.917-7.909-37.917-17.629V58.804
	c0-9.68,17.01-17.554,37.917-17.554s37.917,7.891,37.917,17.591v40.318C112.917,108.856,95.907,116.75,75,116.75z"/>
<g>
	<path fill="#FFFFFF" d="M40.938,59.743C40.938,51.601,56.188,45,75,45c18.812,0,34.062,6.601,34.062,14.743v36.778v1.732
		C109.062,106.398,93.812,113,75,113c-18.812,0-34.062-6.602-34.062-14.744V59.743z"/>
	<path fill="none" stroke="#B1B1B1" stroke-width="2" stroke-miterlimit="10" d="M40.938,59.743C40.938,51.601,56.188,45,75,45
		c18.812,0,34.062,6.601,34.062,14.743v38.512C109.062,106.398,93.812,113,75,113c-18.812,0-34.062-6.602-34.062-14.744V59.743z"/>
	<path fill="none" stroke="#B1B1B1" stroke-width="2" stroke-miterlimit="10" d="M109.062,59.743
		c0,8.144-15.25,14.744-34.062,14.744c-18.812,0-34.062-6.603-34.062-14.744"/>
	<path fill="none" stroke="#B1B1B1" stroke-width="2" stroke-miterlimit="10" d="M109.062,78.824
		c0,8.142-15.25,14.742-34.062,14.742c-18.812,0-34.062-6.603-34.062-14.742"/>
	<line fill="none" stroke="#B1B1B1" stroke-width="2" stroke-miterlimit="10" x1="100.714" y1="93.895" x2="100.714" y2="102.831"/>
	<line fill="none" stroke="#B1B1B1" stroke-width="2" stroke-miterlimit="10" x1="100.714" y1="74.489" x2="100.714" y2="83.425"/>
</g>
</svg>
