<?xml version="1.0" encoding="utf-8"?>
<!-- Generator: Adobe Illustrator 15.0.2, SVG Export Plug-In . SVG Version: 6.00 Build 0)  -->
<!DOCTYPE svg PUBLIC "-//W3C//DTD SVG 1.1//EN" "http://www.w3.org/Graphics/SVG/1.1/DTD/svg11.dtd">
<svg version="1.1" id="Layer_1" xmlns="http://www.w3.org/2000/svg" xmlns:xlink="http://www.w3.org/1999/xlink" x="0px" y="0px"
	 width="150px" height="150px" viewBox="0 0 150 150" enable-background="new 0 0 150 150" xml:space="preserve">
<path opacity="0.5" fill="#57C2F6" enable-background="new    " d="M123.905,98.749H25.98c-2.639,0-4.788-2.17-4.788-4.836V55.92
	c0-2.667,2.147-4.835,4.788-4.835h97.927c2.64,0,4.786,2.169,4.786,4.835v37.993C128.689,96.579,126.542,98.749,123.905,98.749z"/>
<g>
	<path fill="#FFFFFF" stroke="#B1B1B1" stroke-width="2" stroke-miterlimit="10" d="M25,75.15"/>
	<path fill="#FFFFFF" stroke="#B1B1B1" stroke-width="2" stroke-miterlimit="10" d="M25,57.821c0-1.729,1.402-3.127,3.128-3.127
		h93.745c1.725,0,3.127,1.399,3.127,3.127v34.355h-0.002c0,1.729-1.4,3.13-3.126,3.13H28.128c-1.727,0-3.128-1.399-3.128-3.13
		V57.821z"/>
	<path fill="none" stroke="#B1B1B1" stroke-width="2" stroke-miterlimit="10" d="M25,76.15v-0.363c0-1.726,1.402-3.125,3.128-3.125
		h93.745c1.725,0,3.127,1.399,3.127,3.125"/>
	<line fill="none" stroke="#B1B1B1" stroke-width="2" stroke-miterlimit="10" x1="34.599" y1="84.02" x2="99.688" y2="84.02"/>
	<circle fill="none" stroke="#B1B1B1" stroke-width="2" stroke-miterlimit="10" cx="112.074" cy="84.02" r="2.22"/>
</g>
</svg>
