<?xml version="1.0" encoding="utf-8"?>
<!-- Generator: Adobe Illustrator 15.0.2, SVG Export Plug-In . SVG Version: 6.00 Build 0)  -->
<!DOCTYPE svg PUBLIC "-//W3C//DTD SVG 1.1//EN" "http://www.w3.org/Graphics/SVG/1.1/DTD/svg11.dtd">
<svg version="1.1" id="Layer_1" xmlns="http://www.w3.org/2000/svg" xmlns:xlink="http://www.w3.org/1999/xlink" x="0px" y="0px"
	 width="150px" height="150px" viewBox="0 0 150 150" enable-background="new 0 0 150 150" xml:space="preserve">
<g>
	<path fill="#FFFFFF" stroke="#B1B1B1" stroke-width="2" stroke-miterlimit="10" d="M25,75.15"/>
	<path fill="#FFFFFF" stroke="#B1B1B1" stroke-width="2" stroke-miterlimit="10" d="M25,57.821c0-1.729,1.402-3.127,3.128-3.127
		h93.745c1.725,0,3.127,1.399,3.127,3.127v34.357h-0.002c0,1.729-1.401,3.129-3.126,3.129H28.128c-1.727,0-3.128-1.4-3.128-3.129
		V57.821z"/>
	<path fill="none" stroke="#B1B1B1" stroke-width="2" stroke-miterlimit="10" d="M25,76.15v-0.363c0-1.726,1.402-3.125,3.128-3.125
		h93.745c1.725,0,3.127,1.399,3.127,3.125"/>
	<line fill="none" stroke="#B1B1B1" stroke-width="2" stroke-miterlimit="10" x1="34.599" y1="84.019" x2="99.687" y2="84.019"/>
	<circle fill="none" stroke="#B1B1B1" stroke-width="2" stroke-miterlimit="10" cx="112.074" cy="84.02" r="2.22"/>
</g>
</svg>
