<?xml version="1.0" encoding="utf-8"?>
<!-- Generator: Adobe Illustrator 15.0.2, SVG Export Plug-In . SVG Version: 6.00 Build 0)  -->
<!DOCTYPE svg PUBLIC "-//W3C//DTD SVG 1.1//EN" "http://www.w3.org/Graphics/SVG/1.1/DTD/svg11.dtd">
<svg version="1.1" id="Layer_1" xmlns="http://www.w3.org/2000/svg" xmlns:xlink="http://www.w3.org/1999/xlink" x="0px" y="0px"
	 width="150px" height="150px" viewBox="0 0 150 150" enable-background="new 0 0 150 150" xml:space="preserve">
<g opacity="0.5" enable-background="new    ">
	<path fill="#57C2F6" d="M75,117.829c-0.207,0-0.414-0.043-0.607-0.129L22.41,94.492c-0.537-0.24-0.883-0.772-0.883-1.36V57.097
		c0-0.586,0.344-1.118,0.878-1.358l51.967-23.436c0.388-0.175,0.832-0.176,1.22-0.003l51.998,23.192
		c0.537,0.239,0.883,0.772,0.883,1.361v36.274c0,0.588-0.346,1.12-0.883,1.36L75.607,117.7
		C75.414,117.786,75.206,117.829,75,117.829z"/>
</g>
<g>
	<polygon fill="#FFFFFF" stroke="#B1B1B1" stroke-width="2" stroke-miterlimit="10" points="124.896,58.314 74.998,36 
		25.103,58.314 25.103,91.688 74.998,114 124.896,91.688 	"/>
	<polyline fill="none" stroke="#B1B1B1" stroke-width="2" stroke-miterlimit="10" points="33.505,62.075 75,80.661 115.456,62.542 	
		"/>
	<line fill="none" stroke="#B1B1B1" stroke-width="2" stroke-miterlimit="10" x1="85.241" y1="88.213" x2="110.527" y2="76.888"/>
	<line fill="none" stroke="#B1B1B1" stroke-width="2" stroke-miterlimit="10" x1="85.241" y1="97.523" x2="110.527" y2="86.2"/>
	<circle fill="none" stroke="#B1B1B1" stroke-width="2" stroke-miterlimit="10" cx="117.541" cy="80.661" r="2.086"/>
</g>
</svg>
