<?xml version="1.0" encoding="utf-8"?>
<!-- Generator: Adobe Illustrator 15.0.2, SVG Export Plug-In . SVG Version: 6.00 Build 0)  -->
<!DOCTYPE svg PUBLIC "-//W3C//DTD SVG 1.1//EN" "http://www.w3.org/Graphics/SVG/1.1/DTD/svg11.dtd">
<svg version="1.1" id="Layer_1" xmlns="http://www.w3.org/2000/svg" xmlns:xlink="http://www.w3.org/1999/xlink" x="0px" y="0px"
	 width="150px" height="150px" viewBox="0 0 150 150" enable-background="new 0 0 150 150" xml:space="preserve">
<g>
	<path fill="#FFFFFF" stroke="#B1B1B1" stroke-width="2" stroke-miterlimit="10" d="M76.09,36.045H49.719
		c-2.372,0-4.302,1.927-4.302,4.304v69.349c0,2.377,1.931,4.302,4.302,4.302h50.562c2.377,0,4.302-1.926,4.302-4.302V64.707"/>
	<path fill="#FFFFFF" stroke="#B1B1B1" stroke-width="2" stroke-miterlimit="10" d="M78.942,65.65c7.53,0,24.601,0,24.601,0
		c0.717,0,1.655-0.891,0.49-1.964c0.478,0.512-26.363-27.413-26.363-27.413S75,34.703,75,39.096c0,5.658,0,17.652,0,22.504
		C75.001,64.739,76.524,65.65,78.942,65.65z"/>
</g>
</svg>
