<?xml version="1.0" encoding="utf-8"?>
<!-- Generator: Adobe Illustrator 15.0.2, SVG Export Plug-In . SVG Version: 6.00 Build 0)  -->
<!DOCTYPE svg PUBLIC "-//W3C//DTD SVG 1.1//EN" "http://www.w3.org/Graphics/SVG/1.1/DTD/svg11.dtd">
<svg version="1.1" id="Layer_1" xmlns="http://www.w3.org/2000/svg" xmlns:xlink="http://www.w3.org/1999/xlink" x="0px" y="0px"
	 width="150px" height="150px" viewBox="0 0 150 150" enable-background="new 0 0 150 150" xml:space="preserve">
<path opacity="0.5" fill="#57C2F6" enable-background="new    " d="M101.854,117.467H47.774c-3.378,0-5.961-2.748-5.961-6.126
	V38.695c0-3.364,2.914-6.102,6.292-6.102h30.294c0.382,0,0.747,0.157,1.011,0.433l28.209,29.237c0.248,0.26,0.373,0.604,0.373,0.963
	v48.115C107.992,114.719,105.231,117.467,101.854,117.467z"/>
<g>
	<path fill="#FFFFFF" stroke="#B1B1B1" stroke-width="2" stroke-miterlimit="10" d="M76.09,36.045H49.719
		c-2.372,0-4.302,1.927-4.302,4.304v69.349c0,2.377,1.931,4.302,4.302,4.302h50.562c2.377,0,4.302-1.926,4.302-4.302V64.707"/>
	<path fill="#FFFFFF" stroke="#B1B1B1" stroke-width="2" stroke-miterlimit="10" d="M78.941,65.65c7.531,0,24.602,0,24.602,0
		c0.717,0,1.655-0.891,0.49-1.964c0.478,0.512-26.363-27.413-26.363-27.413S75,34.703,75,39.096c0,5.658,0,17.652,0,22.504
		C75.001,64.739,76.523,65.65,78.941,65.65z"/>
</g>
</svg>
