<?xml version="1.0" encoding="utf-8"?>
<!-- Generator: Adobe Illustrator 15.0.2, SVG Export Plug-In . SVG Version: 6.00 Build 0)  -->
<!DOCTYPE svg PUBLIC "-//W3C//DTD SVG 1.1//EN" "http://www.w3.org/Graphics/SVG/1.1/DTD/svg11.dtd">
<svg version="1.1" id="Layer_2" xmlns="http://www.w3.org/2000/svg" xmlns:xlink="http://www.w3.org/1999/xlink" x="0px" y="0px"
	 width="920px" height="821.428px" viewBox="548 489.286 920 821.428" enable-background="new 548 489.286 920 821.428"
	 xml:space="preserve">
<line fill="none" stroke="#595E71" stroke-width="2.5" stroke-miterlimit="10" x1="614.596" y1="1015.364" x2="711.27" y2="1159.974"/>
<line fill="none" stroke="#595E71" stroke-width="2.5" stroke-miterlimit="10" x1="622.331" y1="829.744" x2="614.596" y2="1015.364"/>
<line fill="none" stroke="#595E71" stroke-width="2.5" stroke-miterlimit="10" x1="734.471" y1="958.119" x2="614.596" y2="1015.364"/>
<line fill="none" stroke="#595E71" stroke-width="2.5" stroke-miterlimit="10" x1="780.394" y1="763.182" x2="920.576" y2="813.454"/>
<line fill="none" stroke="#595E71" stroke-width="2.5" stroke-miterlimit="10" x1="1234.776" y1="716.777" x2="1306.126" y2="777.127"/>
<line fill="none" stroke="#595E71" stroke-width="2.5" stroke-miterlimit="10" x1="1144.867" y1="1063.918" x2="1083.96" y2="1261.729"/>
<line fill="none" stroke="#595E71" stroke-width="2.5" stroke-miterlimit="10" x1="994.051" y1="1130.159" x2="915.742" y2="1225.066"/>
<line fill="none" stroke="#595E71" stroke-width="2.5" stroke-miterlimit="10" x1="780.394" y1="763.182" x2="622.331" y2="829.744"/>
<line fill="none" stroke="#595E71" stroke-width="2.5" stroke-miterlimit="10" x1="675.982" y1="690.529" x2="808.431" y2="574.516"/>
<line fill="none" stroke="#595E71" stroke-width="2.5" stroke-miterlimit="10" x1="1267.646" y1="926.421" x2="1389.686" y2="1025.793"/>
<line fill="none" stroke="#595E71" stroke-width="2.5" stroke-miterlimit="10" x1="1053.134" y1="640.256" x2="1163.235" y2="611.253"/>
<line fill="none" stroke="#595E71" stroke-width="2.5" stroke-miterlimit="10" x1="1163.235" y1="611.253" x2="1234.776" y2="712.91"/>
<line fill="none" stroke="#595E71" stroke-width="2.5" stroke-miterlimit="10" x1="1144.867" y1="1063.918" x2="1389.686" y2="1025.793"/>
<line fill="none" stroke="#595E71" stroke-width="2.5" stroke-miterlimit="10" x1="874.171" y1="1060.051" x2="994.051" y2="1130.159"/>
<line fill="none" stroke="#595E71" stroke-width="2.5" stroke-miterlimit="10" x1="994.051" y1="1130.159" x2="1082.026" y2="1034.7"/>
<line fill="none" stroke="#595E71" stroke-width="2.5" stroke-miterlimit="10" x1="780.394" y1="763.182" x2="878.038" y2="694.396"/>
<line fill="none" stroke="#595E71" stroke-width="2.5" stroke-miterlimit="10" x1="675.982" y1="690.529" x2="780.394" y2="763.182"/>
<line fill="none" stroke="#595E71" stroke-width="2.5" stroke-miterlimit="10" x1="808.431" y1="574.516" x2="911.875" y2="624.788"/>
<line fill="none" stroke="#595E71" stroke-width="2.5" stroke-miterlimit="10" x1="911.875" y1="624.788" x2="1012.419" y2="541.914"/>
<line fill="none" stroke="#595E71" stroke-width="2.5" stroke-miterlimit="10" x1="1012.419" y1="541.914" x2="1163.235" y2="611.253"/>
<line fill="none" stroke="#595E71" stroke-width="2.5" stroke-miterlimit="10" x1="1163.235" y1="611.253" x2="1337.255" y2="583.351"/>
<line fill="none" stroke="#595E71" stroke-width="2.5" stroke-miterlimit="10" x1="1337.255" y1="583.351" x2="1306.126" y2="777.127"/>
<line fill="none" stroke="#595E71" stroke-width="2.5" stroke-miterlimit="10" x1="1306.126" y1="777.127" x2="1403.822" y2="900.834"/>
<line fill="none" stroke="#595E71" stroke-width="2.5" stroke-miterlimit="10" x1="1406.862" y1="903.219" x2="1267.646" y2="926.421"/>
<line fill="none" stroke="#595E71" stroke-width="2.5" stroke-miterlimit="10" x1="1389.686" y1="1025.793" x2="1406.862" y2="903.219"/>
<line fill="none" stroke="#595E71" stroke-width="2.5" stroke-miterlimit="10" x1="1389.686" y1="1025.793" x2="1199.973" y2="993.685"/>
<line fill="none" stroke="#595E71" stroke-width="2.5" stroke-miterlimit="10" x1="1389.686" y1="1025.793" x2="1233.81" y2="1178.338"/>
<line fill="none" stroke="#595E71" stroke-width="2.5" stroke-miterlimit="10" x1="1144.867" y1="1063.918" x2="1233.81" y2="1178.338"/>
<line fill="none" stroke="#595E71" stroke-width="2.5" stroke-miterlimit="10" x1="1082.257" y1="1262.03" x2="1233.81" y2="1178.338"/>
<line fill="none" stroke="#595E71" stroke-width="2.5" stroke-miterlimit="10" x1="1082.257" y1="1262.03" x2="994.051" y2="1130.159"/>
<line fill="none" stroke="#595E71" stroke-width="2.5" stroke-miterlimit="10" x1="1144.867" y1="1063.918" x2="1082.026" y2="1034.7"/>
<line fill="none" stroke="#595E71" stroke-width="2.5" stroke-miterlimit="10" x1="915.742" y1="1225.066" x2="711.27" y2="1159.974"/>
<line fill="none" stroke="#595E71" stroke-width="2.5" stroke-miterlimit="10" x1="1238.644" y1="829.744" x2="1306.126" y2="777.127"/>
<line fill="none" stroke="#595E71" stroke-width="2.5" stroke-miterlimit="10" x1="911.875" y1="624.788" x2="994.051" y2="720.644"/>
<line fill="none" stroke="#595E71" stroke-width="2.5" stroke-miterlimit="10" x1="780.394" y1="763.182" x2="808.431" y2="574.516"/>
<line fill="none" stroke="#595E71" stroke-width="2.5" stroke-miterlimit="10" x1="1234.776" y1="716.777" x2="1238.644" y2="829.744"/>
<line fill="none" stroke="#595E71" stroke-width="2.5" stroke-miterlimit="10" x1="878.038" y1="694.396" x2="920.576" y2="813.455"/>
<line fill="none" stroke="#595E71" stroke-width="2.5" stroke-miterlimit="10" x1="947.162" y1="950.386" x2="1012.419" y2="1015.364"/>
<line fill="none" stroke="#595E71" stroke-width="2.5" stroke-miterlimit="10" x1="874.171" y1="1060.051" x2="947.162" y2="950.386"/>
<line fill="none" stroke="#595E71" stroke-width="2.5" stroke-miterlimit="10" x1="874.171" y1="1060.051" x2="1012.419" y2="1015.364"/>
<polyline fill="none" stroke="#595E71" stroke-width="2.5" stroke-miterlimit="10" points="1055.924,900.834 1082.026,1034.7 
	1012.419,1015.364 "/>
<line fill="none" stroke="#595E71" stroke-width="2.5" stroke-miterlimit="10" x1="817.373" y1="900.834" x2="947.162" y2="950.386"/>
<line fill="none" stroke="#595E71" stroke-width="2.5" stroke-miterlimit="10" x1="920.576" y1="813.454" x2="947.162" y2="950.386"/>
<line fill="none" stroke="#595E71" stroke-width="2.5" stroke-miterlimit="10" x1="920.576" y1="813.454" x2="1036.588" y2="759.315"/>
<line fill="none" stroke="#595E71" stroke-width="2.5" stroke-miterlimit="10" x1="1053.134" y1="640.256" x2="1234.776" y2="716.777"/>
<line fill="none" stroke="#595E71" stroke-width="2.5" stroke-miterlimit="10" x1="878.038" y1="694.396" x2="994.051" y2="720.644"/>
<line fill="none" stroke="#595E71" stroke-width="2.5" stroke-miterlimit="10" x1="622.331" y1="829.744" x2="817.373" y2="900.834"/>
<line fill="none" stroke="#595E71" stroke-width="2.5" stroke-miterlimit="10" x1="622.331" y1="829.744" x2="920.576" y2="813.454"/>
<line fill="none" stroke="#595E71" stroke-width="2.5" stroke-miterlimit="10" x1="1036.588" y1="759.315" x2="1238.644" y2="829.744"/>
<line fill="none" stroke="#595E71" stroke-width="2.5" stroke-miterlimit="10" x1="1036.588" y1="759.315" x2="1101.362" y2="845.212"/>
<line fill="none" stroke="#595E71" stroke-width="2.5" stroke-miterlimit="10" x1="920.576" y1="813.454" x2="1004.685" y2="849.08"/>
<line fill="none" stroke="#595E71" stroke-width="2.5" stroke-miterlimit="10" x1="1004.905" y1="848.731" x2="1101.362" y2="845.212"/>
<line fill="none" stroke="#595E71" stroke-width="2.5" stroke-miterlimit="10" x1="1101.362" y1="845.212" x2="1238.644" y2="829.744"/>
<line fill="none" stroke="#595E71" stroke-width="2.5" stroke-miterlimit="10" x1="1101.362" y1="845.212" x2="1141" y2="925.601"/>
<line fill="none" stroke="#595E71" stroke-width="2.5" stroke-miterlimit="10" x1="1235.909" y1="832.479" x2="1141" y2="925.601"/>
<path fill="#62677B" stroke="#595E71" stroke-width="2.5" stroke-miterlimit="10" d="M1055.924,900.834"/>
<path fill="#62677B" stroke="#595E71" stroke-width="2.5" stroke-miterlimit="10" d="M1004.905,848.731"/>
<line fill="none" stroke="#595E71" stroke-width="2.5" stroke-miterlimit="10" x1="947.162" y1="950.386" x2="1055.924" y2="900.834"/>
<line fill="none" stroke="#595E71" stroke-width="2.5" stroke-miterlimit="10" x1="1004.685" y1="849.08" x2="947.162" y2="950.386"/>
<line fill="none" stroke="#595E71" stroke-width="2.5" stroke-miterlimit="10" x1="817.373" y1="900.834" x2="734.471" y2="958.119"/>
<line fill="none" stroke="#595E71" stroke-width="2.5" stroke-miterlimit="10" x1="947.162" y1="950.386" x2="734.471" y2="958.119"/>
<line fill="none" stroke="#595E71" stroke-width="2.5" stroke-miterlimit="10" x1="817.373" y1="900.834" x2="920.576" y2="813.455"/>
<line fill="none" stroke="#595E71" stroke-width="2.5" stroke-miterlimit="10" x1="1141" y1="925.601" x2="1055.924" y2="900.834"/>
<line fill="none" stroke="#595E71" stroke-width="2.5" stroke-miterlimit="10" x1="1053.134" y1="640.256" x2="1036.588" y2="759.315"/>
<line fill="none" stroke="#595E71" stroke-width="2.5" stroke-miterlimit="10" x1="994.051" y1="720.644" x2="1036.588" y2="759.315"/>
<line fill="none" stroke="#595E71" stroke-width="2.5" stroke-miterlimit="10" x1="1234.776" y1="716.777" x2="1036.588" y2="759.315"/>
<line fill="none" stroke="#595E71" stroke-width="2.5" stroke-miterlimit="10" x1="734.471" y1="958.119" x2="874.171" y2="1060.051"/>
<line fill="none" stroke="#595E71" stroke-width="2.5" stroke-miterlimit="10" x1="874.171" y1="1060.051" x2="711.27" y2="1159.974"/>
<line fill="none" stroke="#595E71" stroke-width="2.5" stroke-miterlimit="10" x1="734.471" y1="958.119" x2="711.27" y2="1159.974"/>
<line fill="none" stroke="#595E71" stroke-width="2.5" stroke-miterlimit="10" x1="1082.026" y1="1034.7" x2="1199.973" y2="993.685"/>
<line fill="none" stroke="#595E71" stroke-width="2.5" stroke-miterlimit="10" x1="1199.973" y1="993.685" x2="1267.646" y2="926.421"/>
<line fill="none" stroke="#595E71" stroke-width="2.5" stroke-miterlimit="10" x1="1238.644" y1="829.744" x2="1267.646" y2="926.421"/>
<line fill="none" stroke="#595E71" stroke-width="2.5" stroke-miterlimit="10" x1="1141" y1="925.601" x2="1199.973" y2="993.685"/>
<line fill="none" stroke="#595E71" stroke-width="2.5" stroke-miterlimit="10" x1="1052.167" y1="641.078" x2="993.084" y2="721.465"/>
<circle fill="#62677B" stroke="#595E71" stroke-width="2.5" stroke-miterlimit="10" cx="1053.134" cy="640.256" r="3.867"/>
<circle fill="#62677B" stroke="#595E71" stroke-width="2.5" stroke-miterlimit="10" cx="878.038" cy="694.396" r="3.867"/>
<circle fill="#62677B" stroke="#595E71" stroke-width="2.5" stroke-miterlimit="10" cx="920.576" cy="813.454" r="3.867"/>
<circle fill="#62677B" stroke="#595E71" stroke-width="2.5" stroke-miterlimit="10" cx="1036.588" cy="759.315" r="3.867"/>
<circle fill="#62677B" stroke="#595E71" stroke-width="2.5" stroke-miterlimit="10" cx="1101.362" cy="845.212" r="3.867"/>
<circle fill="#62677B" stroke="#595E71" stroke-width="2.5" stroke-miterlimit="10" cx="1238.644" cy="829.744" r="3.867"/>
<circle fill="#62677B" stroke="#595E71" stroke-width="2.5" stroke-miterlimit="10" cx="1141" cy="925.601" r="3.867"/>
<circle fill="#62677B" stroke="#595E71" stroke-width="2.5" stroke-miterlimit="10" cx="1055.924" cy="900.834" r="3.867"/>
<circle fill="#62677B" stroke="#595E71" stroke-width="2.5" stroke-miterlimit="10" cx="947.162" cy="950.386" r="3.867"/>
<circle fill="#62677B" stroke="#595E71" stroke-width="2.5" stroke-miterlimit="10" cx="1004.685" cy="849.079" r="3.867"/>
<circle fill="#62677B" stroke="#595E71" stroke-width="2.5" stroke-miterlimit="10" cx="817.373" cy="900.834" r="3.867"/>
<circle fill="#62677B" stroke="#595E71" stroke-width="2.5" stroke-miterlimit="10" cx="734.471" cy="958.119" r="3.867"/>
<circle fill="#62677B" stroke="#595E71" stroke-width="2.5" stroke-miterlimit="10" cx="614.596" cy="1015.364" r="3.867"/>
<circle fill="#62677B" stroke="#595E71" stroke-width="2.5" stroke-miterlimit="10" cx="711.27" cy="1159.973" r="3.867"/>
<circle fill="#62677B" stroke="#595E71" stroke-width="2.5" stroke-miterlimit="10" cx="994.051" cy="1130.159" r="3.867"/>
<circle fill="#62677B" stroke="#595E71" stroke-width="2.5" stroke-miterlimit="10" cx="1144.867" cy="1063.918" r="3.867"/>
<circle fill="#62677B" stroke="#595E71" stroke-width="2.5" stroke-miterlimit="10" cx="1389.686" cy="1025.793" r="3.867"/>
<circle fill="#62677B" stroke="#595E71" stroke-width="2.5" stroke-miterlimit="10" cx="1406.862" cy="903.219" r="3.867"/>
<circle fill="#62677B" stroke="#595E71" stroke-width="2.5" stroke-miterlimit="10" cx="1306.126" cy="777.127" r="3.867"/>
<circle fill="#62677B" stroke="#595E71" stroke-width="2.5" stroke-miterlimit="10" cx="1337.255" cy="583.351" r="3.867"/>
<circle fill="#62677B" stroke="#595E71" stroke-width="2.5" stroke-miterlimit="10" cx="1163.235" cy="611.253" r="3.867"/>
<circle fill="#62677B" stroke="#595E71" stroke-width="2.5" stroke-miterlimit="10" cx="1012.419" cy="541.914" r="3.867"/>
<circle fill="#62677B" stroke="#595E71" stroke-width="2.5" stroke-miterlimit="10" cx="911.875" cy="624.788" r="3.867"/>
<circle fill="#62677B" stroke="#595E71" stroke-width="2.5" stroke-miterlimit="10" cx="808.431" cy="574.516" r="3.867"/>
<circle fill="#62677B" stroke="#595E71" stroke-width="2.5" stroke-miterlimit="10" cx="675.982" cy="690.529" r="3.867"/>
<circle fill="#62677B" stroke="#595E71" stroke-width="2.5" stroke-miterlimit="10" cx="780.394" cy="763.182" r="3.867"/>
<circle fill="#62677B" stroke="#595E71" stroke-width="2.5" stroke-miterlimit="10" cx="1233.81" cy="1178.338" r="3.867"/>
<circle fill="#62677B" stroke="#595E71" stroke-width="2.5" stroke-miterlimit="10" cx="1082.886" cy="1261.587" r="3.867"/>
<circle fill="#62677B" stroke="#595E71" stroke-width="2.5" stroke-miterlimit="10" cx="915.742" cy="1225.066" r="3.867"/>
<circle fill="#62677B" stroke="#595E71" stroke-width="2.5" stroke-miterlimit="10" cx="1267.646" cy="926.421" r="3.867"/>
<circle fill="#62677B" stroke="#595E71" stroke-width="2.5" stroke-miterlimit="10" cx="1199.973" cy="993.685" r="3.867"/>
<circle fill="#62677B" stroke="#595E71" stroke-width="2.5" stroke-miterlimit="10" cx="1234.776" cy="716.777" r="3.867"/>
<circle fill="#62677B" stroke="#595E71" stroke-width="2.5" stroke-miterlimit="10" cx="622.331" cy="829.744" r="3.867"/>
<circle fill="#62677B" stroke="#595E71" stroke-width="2.5" stroke-miterlimit="10" cx="994.051" cy="720.644" r="3.867"/>
<circle fill="#62677B" stroke="#595E71" stroke-width="2.5" stroke-miterlimit="10" cx="1012.419" cy="1015.364" r="3.867"/>
<circle fill="#62677B" stroke="#595E71" stroke-width="2.5" stroke-miterlimit="10" cx="874.171" cy="1060.051" r="3.867"/>
<circle fill="#62677B" stroke="#595E71" stroke-width="2.5" stroke-miterlimit="10" cx="1082.026" cy="1034.7" r="3.867"/>
<path fill="none" stroke="#595E71" stroke-width="2.5" stroke-miterlimit="10" d="M1055.924,900.834"/>
<path fill="none" stroke="#595E71" stroke-width="2.5" stroke-miterlimit="10" d="M1012.419,1015.364"/>
<path fill="#62677B" stroke="#595E71" stroke-width="2.5" stroke-miterlimit="10" d="M1082.026,1034.7"/>
<path fill="#62677B" stroke="#595E71" stroke-width="2.5" stroke-miterlimit="10" d="M994.051,1130.159"/>
<path fill="#62677B" stroke="#595E71" stroke-width="2.5" stroke-miterlimit="10" d="M622.331,829.744"/>
</svg>
